<?xml version="1.0" encoding="utf-8"?>
<!-- Generator: Adobe Illustrator 19.1.0, SVG Export Plug-In . SVG Version: 6.00 Build 0)  -->
<svg version="1.1" id="Layer_1" xmlns="http://www.w3.org/2000/svg" xmlns:xlink="http://www.w3.org/1999/xlink" x="0px" y="0px"
	 viewBox="0 0 270 59.9" style="enable-background:new 0 0 270 59.9;" xml:space="preserve">
<style type="text/css">
	.st0{fill:#AAAD00;}
	.st1{fill:#FFFFFF;}
	.st2{fill:#5F6062;}
</style>
<g>
	<path class="st0" d="M51.1,1.3H6.2C2.8,1.3,0,4,0,7.5v44.9c0,3.4,2.8,6.2,6.2,6.2h51.1V7.5C57.4,4,54.6,1.3,51.1,1.3z"/>
	<path class="st1" d="M28.6,49.6c10.9,0,19.7-8.7,19.7-19.6c0-2.6-0.8-6-0.8-5.1c0,7.3-6.8,13.3-14,12.3
		c-5.5-0.8-11.6-5.8-10.5-13.7c1.1-7.9,8-11,12.9-10.3c7.9,1.1,9.6,7.2,7.2,10c-2.4,3.3-7.3,1.3-7.3-2.4c0-2.1,1.4-3,1.6-3.2
		c-4.1-1.2-8.2,2-8.8,6.2c-0.6,4.6,2.8,8.2,6.6,8.7c7,1,11.1-4.7,11.1-9.7c0-5.9-6.3-12.6-17.6-12.6C17.9,10.3,9,19,9,29.9
		C9,40.7,17.8,49.6,28.6,49.6z"/>
	<g>
		<path class="st2" d="M251,18.8c-10.7,0-19,8.2-19,19c0,10.7,8.4,19,19,19c10.7,0,19-8.2,19-19C270,27,261.6,18.8,251,18.8
			 M251,25.4c6.8,0,12.2,5.6,12.2,12.4c0,6.7-5.4,12.4-12.2,12.4c-6.8,0-12.2-5.7-12.2-12.4C238.8,31,244.2,25.4,251,25.4"/>
		<path class="st2" d="M162.9,50.2c-6.8,0-12.2-5.7-12.2-12.4c0-6.8,5.4-12.4,12.2-12.4c6.8,0,12.2,5.6,12.2,12.4
			C175.1,44.5,169.7,50.2,162.9,50.2 M174.9,19.9V24h-0.3c-2.8-3.1-7.3-5.1-12-5.1c-10.7,0-19,8.2-19,19c0,10.7,8.4,19,19,19
			c4.7,0,9.2-2.1,12-5.1h0.3v4h6.8V19.9H174.9z"/>
		<path class="st2" d="M206.9,50.2c-6.8,0-12.2-5.7-12.2-12.4c0-6.8,5.4-12.4,12.2-12.4c6.8,0,12.2,5.6,12.2,12.4
			C219.1,44.5,213.7,50.2,206.9,50.2 M219,2.8V24h-0.3c-2.8-3.1-7.3-5.1-12-5.1c-10.7,0-19,8.2-19,19c0,10.7,8.4,19,19,19
			c4.7,0,9.2-2.1,12-5.1h0.3v4h6.9V2.8H219z"/>
		<path class="st2" d="M137.4,46.3c-2.2,2.4-5.3,4-8.9,4c-6.8,0-12.2-5.7-12.2-12.4c0-6.8,5.4-12.4,12.2-12.4c3.5,0,6.6,1.5,8.9,3.9
			l3.3-6.2c-3.3-2.7-7.5-4.3-12.2-4.3c-10.7,0-19,8.2-19,19c0,10.7,8.4,19,19,19c4.7,0,8.9-1.6,12.2-4.3L137.4,46.3z"/>
		<path class="st2" d="M85.2,18.8c-10.7,0-19,8.2-19,19c0,10.7,8.4,19,19,19c10.7,0,19-8.2,19-19C104.3,27,95.9,18.8,85.2,18.8
			 M85.2,25.4c6.8,0,12.2,5.6,12.2,12.4c0,6.7-5.4,12.4-12.2,12.4c-6.8,0-12.2-5.7-12.2-12.4C73.1,31,78.5,25.4,85.2,25.4"/>
	</g>
</g>
</svg>
